HIERARCHY
ROOT joint_Root
{
	OFFSET 0.0 0.0 0.0
	CHANNELS 6 Xposition Yposition Zposition Zrotation Xrotation Yrotation 
	JOINT Hips
	{
		OFFSET -17.1583 93.1646 452.98
		CHANNELS 6 Xposition Yposition Zposition Zrotation Xrotation Yrotation 
		JOINT Spine
		{
			OFFSET 15.7357 0.0 0.0
			CHANNELS 6 Xposition Yposition Zposition Zrotation Xrotation Yrotation 
			JOINT Chest
			{
				OFFSET 8.98455 -0.406207 0.0
				CHANNELS 6 Xposition Yposition Zposition Zrotation Xrotation Yrotation 
				JOINT Neck
				{
					OFFSET 16.3773 0.0 0.0
					CHANNELS 6 Xposition Yposition Zposition Zrotation Xrotation Yrotation 
					JOINT Head
					{
						OFFSET 6.45672 0.0 0.0
						CHANNELS 6 Xposition Yposition Zposition Zrotation Xrotation Yrotation 
						End Site
						{
							OFFSET 0.0 0.0 0.0
						}
					}
				}
				JOINT Shoulder_L
				{
					OFFSET 12.9942 -0.242716 4.98039
					CHANNELS 6 Xposition Yposition Zposition Zrotation Xrotation Yrotation 
					JOINT UpperArm_L
					{
						OFFSET 5.34809 0.0 0.0
						CHANNELS 6 Xposition Yposition Zposition Zrotation Xrotation Yrotation 
						JOINT LowerArm_L
						{
							OFFSET 24.3286 1.87007e-05 0.0
							CHANNELS 6 Xposition Yposition Zposition Zrotation Xrotation Yrotation 
							JOINT Hand_L
							{
								OFFSET 22.2916 0.0 0.0
								CHANNELS 6 Xposition Yposition Zposition Zrotation Xrotation Yrotation 
								End Site
								{
									OFFSET 0.0 0.0 0.0
								}
							}
						}
					}
				}
				JOINT Shoulder_R
				{
					OFFSET 12.9945 -0.242716 -4.98039
					CHANNELS 6 Xposition Yposition Zposition Zrotation Xrotation Yrotation 
					JOINT UpperArm_R
					{
						OFFSET -5.34813 0.0 0.0
						CHANNELS 6 Xposition Yposition Zposition Zrotation Xrotation Yrotation 
						JOINT LowerArm_R
						{
							OFFSET -24.3289 0.000322201 0.0
							CHANNELS 6 Xposition Yposition Zposition Zrotation Xrotation Yrotation 
							JOINT Hand_R
							{
								OFFSET -22.2915 -0.000108084 0.0
								CHANNELS 6 Xposition Yposition Zposition Zrotation Xrotation Yrotation 
								End Site
								{
									OFFSET 0.0 0.0 0.0
								}
							}
						}
					}
				}
			}
		}
		JOINT UpperLeg_L
		{
			OFFSET -2.19248 -6.46944 0.0
			CHANNELS 6 Xposition Yposition Zposition Zrotation Xrotation Yrotation 
			JOINT LowerLeg_L
			{
				OFFSET 39.0811 0.0 -1.23785e-05
				CHANNELS 6 Xposition Yposition Zposition Zrotation Xrotation Yrotation 
				JOINT Foot_L
				{
					OFFSET 40.9854 0.0 -1.26872e-05
					CHANNELS 6 Xposition Yposition Zposition Zrotation Xrotation Yrotation 
					JOINT Toes_L
					{
						OFFSET 11.7543 0.0 0.0
						CHANNELS 6 Xposition Yposition Zposition Zrotation Xrotation Yrotation 
						End Site
						{
							OFFSET 0.0 0.0 0.0
						}
					}
				}
			}
		}
		JOINT UpperLeg_R
		{
			OFFSET -2.19251 6.46944 0.0
			CHANNELS 6 Xposition Yposition Zposition Zrotation Xrotation Yrotation 
			JOINT LowerLeg_R
			{
				OFFSET -39.0811 -0.00228153 -0.0401928
				CHANNELS 6 Xposition Yposition Zposition Zrotation Xrotation Yrotation 
				JOINT Foot_R
				{
					OFFSET -40.9854 0.0 0.0
					CHANNELS 6 Xposition Yposition Zposition Zrotation Xrotation Yrotation 
					JOINT Toes_R
					{
						OFFSET -11.7543 0.0 0.0
						CHANNELS 6 Xposition Yposition Zposition Zrotation Xrotation Yrotation 
						End Site
						{
							OFFSET 0.0 0.0 0.0
						}
					}
				}
			}
		}
	}
}
MOTION
Frames:	9
Frame Time:	0.0333333
0.000000 0.000000 0.000000 0.000000 0.000000 -0.000000 0.736184 91.918100 20.038900 -88.764700 -1.725750 168.584000 15.735700 0.000005 -0.000001 37.838500 82.515200 -35.149300 8.984550 -0.406207 -0.000000 1.743920 -11.957200 5.571470 16.377300 -0.000001 -0.000001 -5.675290 5.876960 -3.582410 6.456720 -0.000001 -0.000000 -12.639700 11.043600 -0.000616 12.994200 -0.242716 4.980390 -91.317000 5.211320 -75.796200 5.348090 -0.000007 -0.000001 -60.176700 -10.896300 -8.036480 24.328600 0.000019 0.000005 22.194900 7.644310 -71.938400 22.291600 -0.000001 0.000005 24.017100 5.022590 6.841740 12.994500 -0.242716 -4.980390 89.676800 0.965035 -71.485100 -5.348130 -0.000001 -0.000004 -41.798100 -16.030800 24.616300 -24.328900 0.000322 -0.000009 -0.001084 30.051400 0.000149 -22.291500 -0.000108 -0.000004 17.248600 4.261230 20.386500 -2.192480 -6.469440 -0.000000 -176.085000 -4.703570 10.300400 39.081100 -0.000007 -0.000012 0.074344 -0.088007 40.188800 40.985400 -0.000006 -0.000013 -11.434400 7.288460 -33.631700 11.754300 -0.000000 0.000003 0.002351 0.064214 -13.972300 -2.192510 6.469440 -0.000001 178.835000 -6.041340 141.749000 -39.081100 -0.002282 -0.040193 -0.033180 0.120568 16.845800 -40.985400 0.000008 0.000006 -11.937000 -5.481530 -77.031200 -11.754300 -0.000006 -0.000006 -0.000204 0.171041 -9.635830
0.000000 0.000000 0.000000 0.000000 0.000000 -0.000000 0.959711 89.598500 8.810220 -88.033000 -0.100445 170.017000 15.735700 0.000005 -0.000001 45.962300 82.731500 -43.060400 8.984550 -0.406207 -0.000000 2.992670 -10.216500 6.077470 16.377300 -0.000001 -0.000001 -5.510350 6.020940 -4.523550 6.456720 -0.000001 -0.000000 -13.242400 10.139000 -0.831610 12.994200 -0.242716 4.980390 -91.590000 5.932760 -74.970500 5.348090 -0.000007 -0.000001 -61.115200 -9.247600 -5.680580 24.328600 0.000019 0.000005 20.419300 8.809740 -67.640100 22.291600 -0.000001 0.000005 19.377000 5.026070 6.753820 12.994500 -0.242716 -4.980390 89.453000 1.676030 -71.920500 -5.348130 -0.000001 -0.000004 -42.061000 -16.377000 22.094400 -24.328900 0.000322 -0.000009 -0.000949 27.899400 0.000136 -22.291500 -0.000108 -0.000004 16.867700 4.314390 19.567000 -2.192480 -6.469440 -0.000000 -176.322000 -4.797500 8.674590 39.081100 -0.000007 -0.000012 0.163679 -0.119268 53.919400 40.985400 -0.000006 -0.000013 -10.909400 9.611670 -31.182700 11.754300 -0.000000 0.000003 0.002375 0.066036 -13.898400 -2.192510 6.469440 -0.000001 -177.497000 -2.189540 142.307000 -39.081100 -0.002282 -0.040193 -0.068816 0.161675 24.043500 -40.985400 0.000008 0.000006 -14.042700 -3.871770 -76.690200 -11.754300 -0.000006 -0.000006 0.001413 0.138964 -10.937900
0.000000 0.000000 0.000000 0.000000 0.000000 -0.000000 1.629510 86.816600 -1.607040 -85.761600 0.182987 169.822000 15.735700 0.000005 -0.000001 54.726200 83.329100 -51.038600 8.984550 -0.406207 -0.000000 3.416980 -7.835790 7.610710 16.377300 -0.000001 -0.000001 -4.811870 5.412260 -4.944480 6.456720 -0.000001 -0.000000 -14.466400 8.651390 -1.685690 12.994200 -0.242716 4.980390 -92.398000 8.229200 -73.692800 5.348090 -0.000007 -0.000001 -60.351100 -6.773120 -3.527730 24.328600 0.000019 0.000005 24.392300 13.162100 -63.346600 22.291600 -0.000001 0.000005 11.248500 5.086970 5.377670 12.994500 -0.242716 -4.980390 89.007000 3.062630 -72.026300 -5.348130 -0.000001 -0.000004 -44.553000 -14.698900 17.396100 -24.328900 0.000322 -0.000009 -0.001028 26.401900 0.000127 -22.291500 -0.000108 -0.000004 16.083000 4.458510 17.276400 -2.192480 -6.469440 -0.000000 -172.698000 -6.209180 1.457130 39.081100 -0.000007 -0.000012 0.410995 -0.141191 71.040200 40.985400 -0.000006 -0.000013 -11.936100 7.069840 -31.350600 11.754300 -0.000000 0.000003 0.002379 0.066289 -13.888100 -2.192510 6.469440 -0.000001 -170.951000 0.959753 136.578000 -39.081100 -0.002282 -0.040193 0.321140 -0.353589 41.955100 -40.985400 0.000008 0.000006 3.310980 -4.896500 -67.615200 -11.754300 -0.000006 -0.000006 -0.003596 0.214844 -7.854710
0.000000 0.000000 0.000000 0.000000 0.000000 -0.000000 2.348020 84.357200 -11.431300 -84.080000 -0.683360 171.793000 15.735700 0.000005 -0.000001 67.316500 82.796900 -63.125200 8.984550 -0.406207 -0.000000 5.767200 -5.614810 8.661880 16.377300 -0.000001 -0.000001 -5.110980 4.639030 -4.614820 6.456720 -0.000001 -0.000000 -15.535800 7.070300 -2.959010 12.994200 -0.242716 4.980390 -93.177100 10.627900 -73.251000 5.348090 -0.000007 -0.000001 -59.421600 -4.974510 -1.983580 24.328600 0.000019 0.000005 27.270000 20.675300 -55.600100 22.291600 -0.000001 0.000005 6.079810 5.107490 4.943260 12.994500 -0.242716 -4.980390 88.594100 4.240500 -71.638800 -5.348130 -0.000001 -0.000004 -49.355300 -14.152900 9.826020 -24.328900 0.000322 -0.000009 -0.001694 24.611900 0.000116 -22.291500 -0.000108 -0.000004 13.167300 4.687590 13.319600 -2.192480 -6.469440 -0.000000 -169.322000 -5.870470 -7.338980 39.081100 -0.000007 -0.000012 0.673560 -0.019476 88.343000 40.985400 -0.000006 -0.000013 -12.654400 -0.196899 -33.358500 11.754300 -0.000000 0.000003 0.002343 0.063587 -13.997700 -2.192510 6.469440 -0.000001 -169.474000 2.189160 138.874000 -39.081100 -0.002282 -0.040193 0.012759 -0.006741 54.728200 -40.985400 0.000008 0.000006 -1.710690 -3.984770 -78.188500 -11.754300 -0.000006 -0.000006 -0.007338 0.250204 -6.413200
0.000000 0.000000 0.000000 0.000000 0.000000 -0.000000 2.990720 83.181200 -20.505300 -82.860600 -1.109440 172.937000 15.735700 0.000005 -0.000001 77.356500 82.174600 -72.840100 8.984550 -0.406207 -0.000000 7.666650 -3.415580 9.255030 16.377300 -0.000001 -0.000001 -5.494200 4.206670 -4.184120 6.456720 -0.000001 -0.000000 -15.847400 5.542930 -3.904540 12.994200 -0.242716 4.980390 -93.539200 11.239300 -72.394600 5.348090 -0.000007 -0.000001 -60.231400 -2.549320 -1.765030 24.328600 0.000019 0.000005 20.487500 28.153000 -38.373900 22.291600 -0.000001 0.000005 4.633420 5.038630 6.497360 12.994500 -0.242716 -4.980390 88.503800 4.670730 -72.215600 -5.348130 -0.000001 -0.000004 -55.055300 -11.510700 2.134240 -24.328900 0.000322 -0.000009 1.614970 18.495100 -5.124470 -22.291500 -0.000108 -0.000004 2.660820 4.994880 7.276400 -2.192480 -6.469440 -0.000000 -168.015000 -5.342300 -19.987800 39.081100 -0.000007 -0.000012 0.554472 0.112409 101.459000 40.985400 -0.000006 -0.000013 -8.598300 -2.585900 -33.689200 11.754300 -0.000000 0.000003 0.002352 0.064294 -13.969100 -2.192510 6.469440 -0.000001 -168.184000 1.737730 145.032000 -39.081100 -0.002282 -0.040193 -0.015607 0.011388 58.813700 -40.985400 0.000008 0.000006 -3.147100 -4.406600 -85.899300 -11.754300 -0.000006 -0.000006 -0.004718 0.226375 -7.385020
0.000000 0.000000 0.000000 0.000000 0.000000 -0.000000 3.060490 83.628900 -29.668800 -84.072500 -1.384310 173.528000 15.735700 0.000005 -0.000001 83.700900 82.047400 -79.787600 8.984550 -0.406207 -0.000000 8.117170 -1.725090 7.942120 16.377300 -0.000001 -0.000001 -4.918280 3.337320 -3.414670 6.456720 -0.000001 -0.000000 -14.863700 4.056910 -3.620930 12.994200 -0.242716 4.980390 -93.618000 11.306700 -72.125300 5.348090 -0.000007 -0.000001 -60.257500 -3.467290 0.767927 24.328600 0.000019 0.000005 10.629000 32.814800 -19.105200 22.291600 -0.000001 0.000005 -1.920720 5.025140 6.782550 12.994500 -0.242716 -4.980390 88.315400 5.303110 -72.348600 -5.348130 -0.000001 -0.000004 -56.252000 2.853040 -2.561420 -24.328900 0.000322 -0.000009 0.927755 2.596720 -20.257500 -22.291500 -0.000108 -0.000004 -2.486980 5.263920 1.081270 -2.192480 -6.469440 -0.000000 -170.524000 -4.406530 -31.829400 39.081100 -0.000007 -0.000012 0.220501 0.066154 106.697000 40.985400 -0.000006 -0.000013 -4.780500 -0.814541 -38.995500 11.754300 -0.000000 0.000003 0.002396 0.067729 -13.829800 -2.192510 6.469440 -0.000001 -169.825000 2.342890 153.770000 -39.081100 -0.002282 -0.040193 -0.014084 0.011362 56.709500 -40.985400 0.000008 0.000006 -4.360600 -3.144990 -89.350800 -11.754300 -0.000006 -0.000006 -0.000625 0.177590 -9.369780
0.000000 0.000000 0.000000 0.000000 0.000000 -0.000000 2.502000 85.866200 -39.112500 -86.628200 -0.239766 172.525000 15.735700 0.000005 -0.000001 90.137000 82.282000 -87.445300 8.984550 -0.406207 -0.000000 7.674880 0.034768 5.375670 16.377300 -0.000001 -0.000001 -4.193560 2.713810 -2.466210 6.456720 -0.000001 -0.000000 -14.568000 3.006320 -3.231740 12.994200 -0.242716 4.980390 -93.721900 11.134300 -71.383100 5.348090 -0.000007 -0.000001 -58.166500 -10.600100 4.809040 24.328600 0.000019 0.000005 2.237360 38.482500 -3.603640 22.291600 -0.000001 0.000005 -8.741420 4.962950 8.124270 12.994500 -0.242716 -4.980390 88.313000 5.318520 -72.372400 -5.348130 -0.000001 -0.000004 -54.615000 10.854000 -6.270310 -24.328900 0.000322 -0.000009 -3.251570 -3.848940 -40.181200 -22.291500 -0.000108 -0.000004 5.054450 5.448410 -4.413200 -2.192480 -6.469440 -0.000000 -175.233000 -3.851250 -41.185100 39.081100 -0.000007 -0.000012 0.066434 0.015587 103.195000 40.985400 -0.000006 -0.000013 -5.245290 -0.565011 -47.891800 11.754300 -0.000000 0.000003 0.002289 0.060117 -14.138400 -2.192510 6.469440 -0.000001 -174.086000 4.082670 163.036000 -39.081100 -0.002282 -0.040193 -0.032385 0.030867 49.101400 -40.985400 0.000008 0.000006 -5.809870 1.060140 -85.352000 -11.754300 -0.000006 -0.000006 0.002330 0.062655 -14.031900
0.000000 0.000000 0.000000 0.000000 0.000000 -0.000000 1.488620 89.143100 -48.854500 -90.070500 2.338760 169.989000 15.735700 0.000005 -0.000001 98.295000 83.119200 -97.303400 8.984550 -0.406207 -0.000000 5.838030 1.963620 1.881050 16.377300 -0.000001 -0.000001 -3.510380 2.278210 -1.345010 6.456720 -0.000001 -0.000000 -13.476800 2.026700 -3.172120 12.994200 -0.242716 4.980390 -93.415300 9.758270 -70.601700 5.348090 -0.000007 -0.000001 -54.315700 -16.149200 11.811300 24.328600 0.000019 0.000005 -0.000797 42.748800 -0.000006 22.291600 -0.000001 0.000005 -10.998000 4.691130 13.321300 12.994500 -0.242716 -4.980390 88.875700 3.621510 -72.741000 -5.348130 -0.000001 -0.000004 -56.572100 10.576900 -9.116230 -24.328900 0.000322 -0.000009 -5.220520 -3.677730 -54.903000 -22.291500 -0.000108 -0.000004 11.591200 5.627340 -12.850600 -2.192480 -6.469440 -0.000000 179.066000 -2.969710 -47.732300 39.081100 -0.000007 -0.000012 0.004377 0.000157 91.932000 40.985400 -0.000006 -0.000013 -5.882180 -0.487756 -55.588100 11.754300 -0.000000 0.000003 0.002477 0.078429 -13.396000 -2.192510 6.469440 -0.000001 179.623000 6.315460 171.361000 -39.081100 -0.002282 -0.040193 -0.022745 0.033985 37.449700 -40.985400 0.000008 0.000006 -7.328660 5.801760 -73.284500 -11.754300 -0.000006 -0.000006 -0.014856 -0.136909 -22.158700
0.000000 0.000000 0.000000 0.000000 0.000000 -0.000000 0.603405 92.498400 -58.545900 -93.482500 4.615780 166.281000 15.735700 0.000005 -0.000001 110.085000 84.403900 -110.894000 8.984550 -0.406207 -0.000000 2.779060 3.875300 -1.709860 16.377300 -0.000001 -0.000001 -2.908470 1.633430 -0.160456 6.456720 -0.000001 -0.000000 -11.759200 0.648830 -2.543920 12.994200 -0.242716 4.980390 -92.698200 7.379680 -69.849800 5.348090 -0.000007 -0.000001 -51.079100 -15.907000 19.389400 24.328600 0.000019 0.000005 0.000384 45.973300 -0.000007 22.291600 -0.000001 0.000005 -11.721000 4.479000 16.944800 12.994500 -0.242716 -4.980390 89.480800 1.698290 -72.997500 -5.348130 -0.000001 -0.000004 -60.464800 8.536570 -10.858100 -24.328900 0.000322 -0.000009 -8.540190 -4.285470 -63.525100 -22.291500 -0.000108 -0.000004 14.411400 5.676070 -18.444200 -2.192480 -6.469440 -0.000000 174.777000 -1.430070 -51.930000 39.081100 -0.000007 -0.000012 0.006456 -0.001761 74.690400 40.985400 -0.000006 -0.000013 -5.789100 0.296132 -59.533100 11.754300 -0.000000 0.000003 0.002402 0.068248 -13.808800 -2.192510 6.469440 -0.000001 173.944000 9.443840 176.869000 -39.081100 -0.002282 -0.040193 0.021879 -0.039576 25.134000 -40.985400 0.000008 0.000006 -6.923050 8.354370 -54.328300 -11.754300 -0.000006 -0.000006 -0.062398 -0.339489 -30.602000
